<svg xmlns="http://www.w3.org/2000/svg" xmlns:svg="http://www.w3.org/2000/svg" id="svg7617" width="96" height="84" fill="none" version="1.1" viewBox="0 0 96 84"><metadata id="metadata7621"/><defs id="defs7592"><filter id="filter0_f"><feFlood id="feFlood7555" flood-opacity="0" result="BackgroundImageFix"/><feBlend id="feBlend7557" in="SourceGraphic" in2="BackgroundImageFix" mode="normal" result="shape"/><feGaussianBlur id="feGaussianBlur7559" result="effect1_foregroundBlur" stdDeviation=".4"/></filter><filter id="filter1_f"><feFlood id="feFlood7562" flood-opacity="0" result="BackgroundImageFix"/><feBlend id="feBlend7564" in="SourceGraphic" in2="BackgroundImageFix" mode="normal" result="shape"/><feGaussianBlur id="feGaussianBlur7566" result="effect1_foregroundBlur" stdDeviation="4"/></filter><linearGradient id="paint0_linear" x1="66.5" x2="38.5" y1="90.5" y2="8" gradientUnits="userSpaceOnUse"><stop id="stop7569" stop-color="#E6AD10"/><stop id="stop7571" offset="1" stop-color="#F2C811"/></linearGradient><linearGradient id="paint1_linear" x1="46" x2="79.299" y1="-5.469" y2="90.713" gradientUnits="userSpaceOnUse"><stop id="stop7574" stop-color="#E6AD10"/><stop id="stop7576" offset="1" stop-color="#C87E0E"/></linearGradient><linearGradient id="paint2_linear" x1="36.998" x2="61.786" y1="46" y2="93.593" gradientUnits="userSpaceOnUse"><stop id="stop7579" stop-color="#F6D751"/><stop id="stop7581" offset="1" stop-color="#E6AD10"/></linearGradient><linearGradient id="paint3_linear" x1="23.998" x2="39.527" y1="64" y2="108.11" gradientUnits="userSpaceOnUse"><stop id="stop7584" stop-color="#F9E589"/><stop id="stop7586" offset="1" stop-color="#F6D751"/></linearGradient><clipPath id="clip0"><rect id="rect7589" width="96" height="96" x="0" y="0" fill="#fff"/></clipPath></defs><g id="g7615" clip-path="url(#clip0)" transform="translate(-2.1192799e-7,-12)"><mask id="mask0" width="96" height="84" x="0" y="12" mask-type="alpha" maskUnits="userSpaceOnUse"><path id="path7594" fill="#c4c4c4" d="M 4,12 C 1.79086,12 9.48833e-8,13.7909 2.11928e-7,16 L 3.60277e-6,80 C 3.71981e-6,82.2091 1.79086,84 4,84 h 20 v 8 c 0,2.2091 1.7909,4 4,4 h 40 c 2.2091,0 4,-1.7909 4,-4 v -8 h 20 c 2.2091,0 4,-1.7909 4,-4 V 16 c 0,-2.2091 -1.7909,-4 -4,-4 z"/></mask><g id="g7613" mask="url(#mask0)"><path id="path7597" fill="url(#paint0_linear)" d="M 0,84 -3.14722e-6,12 H 96 v 72 z" style="fill:url(#paint0_linear)"/><path id="path7599" fill="url(#paint1_linear)" d="M 72,32 V 96 H 54 c -2.2091,0 -4,-1.7909 -4,-4 V 32 c 0,-2.2091 1.7909,-4 4,-4 h 14 c 2.2091,0 4,1.7909 4,4 z" style="fill:url(#paint1_linear)"/><g id="g7603" filter="url(#filter0_f)"><path id="path7601" fill="#000" fill-opacity=".2" d="m 59,96.4 v -46 c 0,-2.2091 -1.7909,-4 -4,-4 H 41 c -2.2091,0 -4,1.7909 -4,4 v 14 h -9 c -2.2091,0 -4,1.7909 -4,4 v 28 z"/></g><g id="g7607" filter="url(#filter1_f)"><path id="path7605" fill="#000" fill-opacity=".18" d="M 59,98 V 52 c 0,-2.2091 -1.7909,-4 -4,-4 H 41 c -2.2091,0 -4,1.7909 -4,4 v 14 h -9 c -2.2091,0 -4,1.7909 -4,4 v 28 z"/></g><path id="path7609" fill="url(#paint2_linear)" d="M 59,50 V 96 H 41 c -2.2091,0 -4,-1.7909 -4,-4 V 50 c 0,-2.2091 1.7909,-4 4,-4 h 14 c 2.2091,0 4,1.7909 4,4 z" style="fill:url(#paint2_linear)"/><path id="path7611" fill="url(#paint3_linear)" d="M 24,68 V 96 H 46 V 68 c 0,-2.2091 -1.7909,-4 -4,-4 H 28 c -2.2091,0 -4,1.7909 -4,4 z" style="fill:url(#paint3_linear)"/></g></g></svg>