<svg xmlns="http://www.w3.org/2000/svg" xmlns:svg="http://www.w3.org/2000/svg" id="svg15999" width="1664" height="2048" version="1.1" viewBox="0 0 1664 2048"><metadata id="metadata16005"/><path id="path15997" d="m 896,1280 v -128 h 128 v 128 z m 0,256 v -128 h 128 v 128 z m 384,256 v -128 h 128 v 128 z m 0,-256 v -128 h 128 v 128 z m -384,256 v -128 h 128 v 128 z M 1408,0 V 128 H 128 V 1792 H 0 V 0 Z M 640,1152 v 128 H 512 v -128 z m 0,256 v 128 H 512 v -128 z m 0,256 v 128 H 512 V 1664 Z M 256,256 H 1664 V 2048 H 256 Z M 1536,1920 V 384 H 384 V 1920 Z M 1408,512 V 896 H 512 V 512 Z M 1280,768 V 640 H 640 v 128 z m 0,512 v -128 h 128 v 128 z"/></svg>