<svg xmlns="http://www.w3.org/2000/svg" xmlns:svg="http://www.w3.org/2000/svg" id="svg19655" width="1200" height="1600" fill="none" version="1.1" viewBox="0 0 1200 1600"><metadata id="metadata19659"/><mask id="mask0" width="1200" height="1600" x="200" y="0" mask-type="alpha" maskUnits="userSpaceOnUse"><path id="path19600" fill="#fff" d="m 1333.25,0 c 36.86,0 66.75,29.8849 66.75,66.75 v 1466.5 c 0,36.86 -29.89,66.75 -66.75,66.75 H 266.667 C 229.848,1600 200,1570.15 200,1533.33 V 866.667 C 200,829.848 229.848,800 266.667,800 H 525 V 466.667 C 525,429.848 554.848,400 591.667,400 H 850 V 66.75 C 850,29.885 879.885,0 916.75,0 Z"/></mask><g id="g19611" mask="url(#mask0)" transform="translate(-200)"><path id="path19603" fill="url(#paint0_linear)" d="m 1400,66.75 v 1466.5 c 0,36.86 -29.89,66.75 -66.75,66.75 H 916.75 C 879.885,1600 850,1570.11 850,1533.25 V 66.75 C 850,29.885 879.885,0 916.75,0 h 416.5 c 36.87,0 66.75,29.8849 66.75,66.75 z" style="fill:url(#paint0_linear)"/><g id="g19607" filter="url(#filter0_dd)"><path id="path19605" fill="url(#paint1_linear)" d="M 1075,466.667 V 1600 H 525 V 466.667 C 525,429.848 554.848,400 591.667,400 h 416.663 c 36.82,0 66.67,29.848 66.67,66.667 z" style="fill:url(#paint1_linear)"/></g><path id="path19609" fill="url(#paint2_linear)" d="m 200,866.667 v 666.663 c 0,36.82 29.848,66.67 66.667,66.67 H 750 V 866.667 C 750,829.848 720.152,800 683.333,800 H 266.667 C 229.848,800 200,829.848 200,866.667 Z" style="fill:url(#paint2_linear)"/></g><defs id="defs19653"><filter id="filter0_dd" width="560.667" height="1210.67" x="519.667" y="396" color-interpolation-filters="sRGB" filterUnits="userSpaceOnUse"><feFlood id="feFlood19613" flood-opacity="0" result="BackgroundImageFix"/><feColorMatrix id="feColorMatrix19615" in="SourceAlpha" type="matrix" values="0 0 0 0 0 0 0 0 0 0 0 0 0 0 0 0 0 0 127 0"/><feOffset id="feOffset19617" dy=".253"/><feGaussianBlur id="feGaussianBlur19619" stdDeviation=".253"/><feColorMatrix id="feColorMatrix19621" type="matrix" values="0 0 0 0 0 0 0 0 0 0 0 0 0 0 0 0 0 0 0.2 0"/><feBlend id="feBlend19623" in2="BackgroundImageFix" mode="normal" result="effect1_dropShadow"/><feColorMatrix id="feColorMatrix19625" in="SourceAlpha" type="matrix" values="0 0 0 0 0 0 0 0 0 0 0 0 0 0 0 0 0 0 127 0"/><feOffset id="feOffset19627" dy="1.333"/><feGaussianBlur id="feGaussianBlur19629" stdDeviation="2.667"/><feColorMatrix id="feColorMatrix19631" type="matrix" values="0 0 0 0 0 0 0 0 0 0 0 0 0 0 0 0 0 0 0.18 0"/><feBlend id="feBlend19633" in2="effect1_dropShadow" mode="normal" result="effect2_dropShadow"/><feBlend id="feBlend19635" in="SourceGraphic" in2="effect2_dropShadow" mode="normal" result="shape"/></filter><linearGradient id="paint0_linear" x1="758.333" x2="1447.82" y1="0" y2="1507.15" gradientUnits="userSpaceOnUse"><stop id="stop19638" stop-color="#E6AD10"/><stop id="stop19640" offset="1" stop-color="#C87E0E"/></linearGradient><linearGradient id="paint1_linear" x1="524.955" x2="1105.79" y1="400" y2="1561.67" gradientUnits="userSpaceOnUse"><stop id="stop19643" stop-color="#F6D751"/><stop id="stop19645" offset="1" stop-color="#E6AD10"/></linearGradient><linearGradient id="paint2_linear" x1="199.955" x2="519.784" y1="800" y2="1581.68" gradientUnits="userSpaceOnUse"><stop id="stop19648" stop-color="#F9E589"/><stop id="stop19650" offset="1" stop-color="#F6D751"/></linearGradient></defs></svg>