<svg xmlns="http://www.w3.org/2000/svg" xmlns:svg="http://www.w3.org/2000/svg" id="svg4077" width="80" height="96" fill="none" version="1.1" viewBox="0 0 80 96"><metadata id="metadata4081"/><defs id="defs4050"><filter id="filter0_f"><feFlood id="feFlood4013" flood-opacity="0" result="BackgroundImageFix"/><feBlend id="feBlend4015" in="SourceGraphic" in2="BackgroundImageFix" mode="normal" result="shape"/><feGaussianBlur id="feGaussianBlur4017" result="effect1_foregroundBlur" stdDeviation=".4"/></filter><filter id="filter1_f"><feFlood id="feFlood4020" flood-opacity="0" result="BackgroundImageFix"/><feBlend id="feBlend4022" in="SourceGraphic" in2="BackgroundImageFix" mode="normal" result="shape"/><feGaussianBlur id="feGaussianBlur4024" result="effect1_foregroundBlur" stdDeviation="4"/></filter><linearGradient id="paint0_linear" x1="73.697" x2="29.997" y1="88" y2=".92" gradientUnits="userSpaceOnUse"><stop id="stop4027" stop-color="#E6AD10"/><stop id="stop4029" offset="1" stop-color="#F2C811"/></linearGradient><linearGradient id="paint1_linear" x1="62" x2="95.299" y1="-5.469" y2="90.713" gradientUnits="userSpaceOnUse"><stop id="stop4032" stop-color="#E6AD10"/><stop id="stop4034" offset="1" stop-color="#C87E0E"/></linearGradient><linearGradient id="paint2_linear" x1="52.998" x2="77.786" y1="46" y2="93.593" gradientUnits="userSpaceOnUse"><stop id="stop4037" stop-color="#F6D751"/><stop id="stop4039" offset="1" stop-color="#E6AD10"/></linearGradient><linearGradient id="paint3_linear" x1="39.998" x2="55.527" y1="64" y2="108.11" gradientUnits="userSpaceOnUse"><stop id="stop4042" stop-color="#F9E589"/><stop id="stop4044" offset="1" stop-color="#F6D751"/></linearGradient><clipPath id="clip0"><rect id="rect4047" width="96" height="96" x="0" y="0" fill="#fff"/></clipPath></defs><g id="g4075" clip-path="url(#clip0)" transform="translate(-8)"><mask id="mask0" width="80" height="96" x="8" y="0" mask-type="alpha" maskUnits="userSpaceOnUse"><path id="path4052" fill="#c4c4c4" d="M 9.17157,22.8284 C 8.42143,23.5786 8,24.596 8,25.6568 V 84 c 0,2.2091 1.79086,4 4,4 h 28 v 4 c 0,2.2091 1.7909,4 4,4 h 40 c 2.2091,0 4,-1.7908 4,-4 V 28 H 80 V 4 C 80,1.79086 78.2091,0 76,0 H 33.6569 C 32.596,0 31.5786,0.421426 30.8284,1.17157 Z"/></mask><g id="g4073" mask="url(#mask0)"><path id="path4055" fill="url(#paint0_linear)" d="M 8,0 H 80 V 88 H 8 Z" style="fill:url(#paint0_linear)"/><path id="path4057" fill="#f9e589" d="m 32,0 v 20 c 0,2.2091 -1.7909,4 -4,4 H 8 Z"/><path id="path4059" fill="url(#paint1_linear)" d="M 88,32 V 96 H 70 c -2.2091,0 -4,-1.7909 -4,-4 V 32 c 0,-2.2091 1.7909,-4 4,-4 h 14 c 2.2091,0 4,1.7909 4,4 z" style="fill:url(#paint1_linear)"/><g id="g4063" filter="url(#filter0_f)"><path id="path4061" fill="#000" fill-opacity=".2" d="m 75,96.4 v -46 c 0,-2.2091 -1.7909,-4 -4,-4 H 57 c -2.2091,0 -4,1.7909 -4,4 v 14 h -9 c -2.2091,0 -4,1.7909 -4,4 v 28 z"/></g><g id="g4067" filter="url(#filter1_f)"><path id="path4065" fill="#000" fill-opacity=".18" d="M 75,98 V 52 c 0,-2.2091 -1.7909,-4 -4,-4 H 57 c -2.2091,0 -4,1.7909 -4,4 v 14 h -9 c -2.2091,0 -4,1.7909 -4,4 v 28 z"/></g><path id="path4069" fill="url(#paint2_linear)" d="M 75,50 V 96 H 57 c -2.2091,0 -4,-1.7909 -4,-4 V 50 c 0,-2.2091 1.7909,-4 4,-4 h 14 c 2.2091,0 4,1.7909 4,4 z" style="fill:url(#paint2_linear)"/><path id="path4071" fill="url(#paint3_linear)" d="M 40,68 V 96 H 62 V 68 c 0,-2.2091 -1.7909,-4 -4,-4 H 44 c -2.2091,0 -4,1.7909 -4,4 z" style="fill:url(#paint3_linear)"/></g></g></svg>