<svg xmlns="http://www.w3.org/2000/svg" xmlns:svg="http://www.w3.org/2000/svg" id="svg6461" width="135" height="102" overflow="hidden" version="1.1"><metadata id="metadata6465"/><defs id="defs6451"><clipPath id="clip0"><rect id="rect6448" width="136" height="104" x="1135" y="369"/></clipPath></defs><g id="g6459" clip-path="url(#clip0)" transform="translate(-1136,-370)"><path id="path6453" fill="none" fill-rule="evenodd" stroke="#000" stroke-miterlimit="8" stroke-width="6" d="m 1139,375.909 c 0,-1.606 1.3,-2.909 2.91,-2.909 h 91.18 c 1.61,0 2.91,1.303 2.91,2.909 v 58.182 c 0,1.606 -1.3,2.909 -2.91,2.909 h -91.18 c -1.61,0 -2.91,-1.303 -2.91,-2.909 z"/><path id="path6455" fill="none" fill-rule="evenodd" stroke="#000" stroke-miterlimit="8" stroke-width="6" d="m 1155,391.909 c 0,-1.606 1.3,-2.909 2.91,-2.909 h 91.18 c 1.61,0 2.91,1.303 2.91,2.909 v 58.182 c 0,1.606 -1.3,2.909 -2.91,2.909 h -91.18 c -1.61,0 -2.91,-1.303 -2.91,-2.909 z"/><path id="path6457" fill="none" fill-rule="evenodd" stroke="#000" stroke-miterlimit="8" stroke-width="6" d="m 1171,407.909 c 0,-1.606 1.3,-2.909 2.91,-2.909 h 91.18 c 1.61,0 2.91,1.303 2.91,2.909 v 58.182 c 0,1.606 -1.3,2.909 -2.91,2.909 h -91.18 c -1.61,0 -2.91,-1.303 -2.91,-2.909 z"/></g></svg>